<svg width="13" height="21" viewBox="0 0 13 21" fill="none" xmlns="http://www.w3.org/2000/svg">
<path d="M2.72754 20.9082C1.90723 20.9082 1.24756 20.6689 0.748535 20.1904C0.249512 19.7119 0 19.083 0 18.3037V2.60498C0 1.82568 0.249512 1.19678 0.748535 0.718262C1.24756 0.239746 1.90723 0.000488281 2.72754 0.000488281H10.1411C10.9478 0.000488281 11.5972 0.239746 12.0894 0.718262C12.5884 1.19678 12.8379 1.82568 12.8379 2.60498V18.3037C12.8379 19.083 12.5884 19.7119 12.0894 20.1904C11.5972 20.6689 10.9478 20.9082 10.1411 20.9082H2.72754ZM2.98389 19.1343H9.854C10.2505 19.1343 10.5547 19.0283 10.7666 18.8164C10.9854 18.6113 11.0947 18.3208 11.0947 17.9448V2.96387C11.0947 2.58105 10.9854 2.28711 10.7666 2.08203C10.5547 1.87695 10.2505 1.77441 9.854 1.77441H8.59277C8.44238 1.77441 8.36719 1.85303 8.36719 2.01025V2.23584C8.36719 2.44775 8.30225 2.61865 8.17236 2.74854C8.04932 2.87158 7.88867 2.93311 7.69043 2.93311H5.15771C4.95264 2.93311 4.78857 2.87158 4.66553 2.74854C4.54248 2.61865 4.48096 2.44775 4.48096 2.23584V2.01025C4.48096 1.85303 4.40234 1.77441 4.24512 1.77441H2.98389C2.5874 1.77441 2.27979 1.87695 2.06104 2.08203C1.84912 2.28711 1.74316 2.58105 1.74316 2.96387V17.9448C1.74316 18.3276 1.84912 18.6216 2.06104 18.8267C2.27979 19.0317 2.5874 19.1343 2.98389 19.1343ZM4.34766 18.396C4.21094 18.396 4.09814 18.3516 4.00928 18.2627C3.92041 18.1807 3.87598 18.0679 3.87598 17.9243C3.87598 17.7808 3.92041 17.6646 4.00928 17.5757C4.09814 17.4937 4.21094 17.4526 4.34766 17.4526H8.50049C8.63721 17.4526 8.75 17.4937 8.83887 17.5757C8.92773 17.6646 8.97217 17.7808 8.97217 17.9243C8.97217 18.0679 8.92773 18.1807 8.83887 18.2627C8.75 18.3516 8.63721 18.396 8.50049 18.396H4.34766Z" fill="#8391A1"/>
<path d="M2.72754 20.9082C1.90723 20.9082 1.24756 20.6689 0.748535 20.1904C0.249512 19.7119 0 19.083 0 18.3037V2.60498C0 1.82568 0.249512 1.19678 0.748535 0.718262C1.24756 0.239746 1.90723 0.000488281 2.72754 0.000488281H10.1411C10.9478 0.000488281 11.5972 0.239746 12.0894 0.718262C12.5884 1.19678 12.8379 1.82568 12.8379 2.60498V18.3037C12.8379 19.083 12.5884 19.7119 12.0894 20.1904C11.5972 20.6689 10.9478 20.9082 10.1411 20.9082H2.72754ZM2.98389 19.1343H9.854C10.2505 19.1343 10.5547 19.0283 10.7666 18.8164C10.9854 18.6113 11.0947 18.3208 11.0947 17.9448V2.96387C11.0947 2.58105 10.9854 2.28711 10.7666 2.08203C10.5547 1.87695 10.2505 1.77441 9.854 1.77441H8.59277C8.44238 1.77441 8.36719 1.85303 8.36719 2.01025V2.23584C8.36719 2.44775 8.30225 2.61865 8.17236 2.74854C8.04932 2.87158 7.88867 2.93311 7.69043 2.93311H5.15771C4.95264 2.93311 4.78857 2.87158 4.66553 2.74854C4.54248 2.61865 4.48096 2.44775 4.48096 2.23584V2.01025C4.48096 1.85303 4.40234 1.77441 4.24512 1.77441H2.98389C2.5874 1.77441 2.27979 1.87695 2.06104 2.08203C1.84912 2.28711 1.74316 2.58105 1.74316 2.96387V17.9448C1.74316 18.3276 1.84912 18.6216 2.06104 18.8267C2.27979 19.0317 2.5874 19.1343 2.98389 19.1343ZM4.34766 18.396C4.21094 18.396 4.09814 18.3516 4.00928 18.2627C3.92041 18.1807 3.87598 18.0679 3.87598 17.9243C3.87598 17.7808 3.92041 17.6646 4.00928 17.5757C4.09814 17.4937 4.21094 17.4526 4.34766 17.4526H8.50049C8.63721 17.4526 8.75 17.4937 8.83887 17.5757C8.92773 17.6646 8.97217 17.7808 8.97217 17.9243C8.97217 18.0679 8.92773 18.1807 8.83887 18.2627C8.75 18.3516 8.63721 18.396 8.50049 18.396H4.34766Z" fill="black" fill-opacity="0.2"/>
</svg>
