<svg width="14" height="20" viewBox="0 0 14 20" fill="none" xmlns="http://www.w3.org/2000/svg">
<path d="M2.20459 19.1855C1.47998 19.1855 0.929688 18.9907 0.553711 18.6011C0.18457 18.2114 0 17.6235 0 16.8374V10.0493C0 9.27686 0.18457 8.6958 0.553711 8.30615C0.929688 7.9165 1.47998 7.72168 2.20459 7.72168H11.1973C11.9287 7.72168 12.479 7.9165 12.8481 8.30615C13.2241 8.6958 13.4121 9.27686 13.4121 10.0493V16.8374C13.4121 17.6235 13.2241 18.2114 12.8481 18.6011C12.479 18.9907 11.9287 19.1855 11.1973 19.1855H2.20459ZM2.38916 17.5757H11.0332C11.2451 17.5757 11.4058 17.5142 11.5151 17.3911C11.6245 17.2681 11.6792 17.0869 11.6792 16.8477V10.0391C11.6792 9.80664 11.6245 9.63232 11.5151 9.51611C11.4058 9.39307 11.2451 9.33154 11.0332 9.33154H2.38916C2.18408 9.33154 2.02344 9.39307 1.90723 9.51611C1.79785 9.63232 1.74316 9.80664 1.74316 10.0391V16.8477C1.74316 17.0869 1.79785 17.2681 1.90723 17.3911C2.02344 17.5142 2.18408 17.5757 2.38916 17.5757ZM1.74316 8.50098V5.4248C1.74316 4.22168 1.97559 3.22021 2.44043 2.42041C2.90527 1.61377 3.51709 1.00879 4.27588 0.605469C5.03467 0.202148 5.84473 0.000488281 6.70605 0.000488281C7.57422 0.000488281 8.38428 0.202148 9.13623 0.605469C9.89502 1.00879 10.5068 1.61377 10.9717 2.42041C11.4434 3.22021 11.6792 4.22168 11.6792 5.4248V8.50098H9.99756V5.24023C9.99756 4.4541 9.84375 3.79102 9.53613 3.25098C9.23535 2.71094 8.83545 2.3042 8.33643 2.03076C7.84424 1.75732 7.30078 1.62061 6.70605 1.62061C6.11816 1.62061 5.57471 1.75732 5.07568 2.03076C4.57666 2.3042 4.17676 2.71094 3.87598 3.25098C3.5752 3.79102 3.4248 4.4541 3.4248 5.24023V8.50098H1.74316Z" fill="#8391A1"/>
<path d="M2.20459 19.1855C1.47998 19.1855 0.929688 18.9907 0.553711 18.6011C0.18457 18.2114 0 17.6235 0 16.8374V10.0493C0 9.27686 0.18457 8.6958 0.553711 8.30615C0.929688 7.9165 1.47998 7.72168 2.20459 7.72168H11.1973C11.9287 7.72168 12.479 7.9165 12.8481 8.30615C13.2241 8.6958 13.4121 9.27686 13.4121 10.0493V16.8374C13.4121 17.6235 13.2241 18.2114 12.8481 18.6011C12.479 18.9907 11.9287 19.1855 11.1973 19.1855H2.20459ZM2.38916 17.5757H11.0332C11.2451 17.5757 11.4058 17.5142 11.5151 17.3911C11.6245 17.2681 11.6792 17.0869 11.6792 16.8477V10.0391C11.6792 9.80664 11.6245 9.63232 11.5151 9.51611C11.4058 9.39307 11.2451 9.33154 11.0332 9.33154H2.38916C2.18408 9.33154 2.02344 9.39307 1.90723 9.51611C1.79785 9.63232 1.74316 9.80664 1.74316 10.0391V16.8477C1.74316 17.0869 1.79785 17.2681 1.90723 17.3911C2.02344 17.5142 2.18408 17.5757 2.38916 17.5757ZM1.74316 8.50098V5.4248C1.74316 4.22168 1.97559 3.22021 2.44043 2.42041C2.90527 1.61377 3.51709 1.00879 4.27588 0.605469C5.03467 0.202148 5.84473 0.000488281 6.70605 0.000488281C7.57422 0.000488281 8.38428 0.202148 9.13623 0.605469C9.89502 1.00879 10.5068 1.61377 10.9717 2.42041C11.4434 3.22021 11.6792 4.22168 11.6792 5.4248V8.50098H9.99756V5.24023C9.99756 4.4541 9.84375 3.79102 9.53613 3.25098C9.23535 2.71094 8.83545 2.3042 8.33643 2.03076C7.84424 1.75732 7.30078 1.62061 6.70605 1.62061C6.11816 1.62061 5.57471 1.75732 5.07568 2.03076C4.57666 2.3042 4.17676 2.71094 3.87598 3.25098C3.5752 3.79102 3.4248 4.4541 3.4248 5.24023V8.50098H1.74316Z" fill="black" fill-opacity="0.2"/>
</svg>
